<svg xmlns="http://www.w3.org/2000/svg" xmlns:xlink="http://www.w3.org/1999/xlink" width="1046pt" height="1253pt" viewBox="18 18 1027.78 1235"><g id="graph0" class="graph" transform="scale(1 1) rotate(0) translate(22 1231)"><title>cache_req_fsm</title><polygon fill="#fff" stroke="transparent" points="-4 4 -4 -1213 1005.783 -1213 1005.783 4 -4 4"/><g id="clust3" class="cluster"><title>cluster_backend</title><polygon fill="#f0f8ff" stroke="#f0f8ff" points="174.476 -294 174.476 -441 470.476 -441 470.476 -294 174.476 -294"/></g><g id="node1" class="node"><title>acceptor</title><polygon fill="none" stroke="#000" points="712.377 -1113.5 671.427 -1131.5 589.526 -1131.5 548.575 -1113.5 589.526 -1095.5 671.427 -1095.5 712.377 -1113.5"/><text x="630.476" y="-1109.3" fill="#000" font-family="Times,serif" font-size="14" text-anchor="middle">Request received</text></g><g id="node5" class="node"><title>recv</title><polygon fill="none" stroke="#000" points="517.185 -987.5 517.185 -1053.5 851.767 -1053.5 851.767 -987.5 517.185 -987.5"/><text x="684.476" y="-1038.3" fill="#000" font-family="Times,serif" font-size="14" text-anchor="middle">cnt_recv:</text><polyline fill="none" stroke="#000" points="517.185 -1031.5 851.767 -1031.5"/><text x="609.001" y="-1016.3" fill="#000" font-family="Times,serif" font-size="14" text-anchor="middle">vcl_recv{}</text><polyline fill="none" stroke="#000" points="700.818 -1009.5 700.818 -1031.5"/><text x="776.006" y="-1016.3" fill="#000" font-family="Times,serif" font-size="14" text-anchor="middle">req.*</text><polyline fill="none" stroke="#000" points="517.185 -1009.5 851.767 -1009.5"/><text x="534.513" y="-994.3" fill="#000" font-family="Times,serif" font-size="14" text-anchor="middle">fail</text><polyline fill="none" stroke="#000" points="551.84 -987.5 551.84 -1009.5"/><text x="572.671" y="-994.3" fill="#000" font-family="Times,serif" font-size="14" text-anchor="middle">hash</text><polyline fill="none" stroke="#000" points="593.502 -987.5 593.502 -1009.5"/><text x="617.317" y="-994.3" fill="#000" font-family="Times,serif" font-size="14" text-anchor="middle">purge</text><polyline fill="none" stroke="#000" points="641.132 -987.5 641.132 -1009.5"/><text x="661.188" y="-994.3" fill="#000" font-family="Times,serif" font-size="14" text-anchor="middle">pass</text><polyline fill="none" stroke="#000" points="681.243 -987.5 681.243 -1009.5"/><text x="701.294" y="-994.3" fill="#000" font-family="Times,serif" font-size="14" text-anchor="middle">pipe</text><polyline fill="none" stroke="#000" points="721.346 -987.5 721.346 -1009.5"/><text x="746.836" y="-994.3" fill="#000" font-family="Times,serif" font-size="14" text-anchor="middle">restart</text><polyline fill="none" stroke="#000" points="772.326 -987.5 772.326 -1009.5"/><text x="795.495" y="-994.3" fill="#000" font-family="Times,serif" font-size="14" text-anchor="middle">synth</text><polyline fill="none" stroke="#000" points="818.664 -987.5 818.664 -1009.5"/><text x="835.215" y="-994.3" fill="#000" font-family="Times,serif" font-size="14" text-anchor="middle">vcl</text></g><g id="edge2" class="edge"><title>acceptor-&gt;recv</title><path fill="none" stroke="#000" stroke-width="2" d="M641.1447,-1095.1262C646.6313,-1085.6772 653.5589,-1073.7462 660.256,-1062.2123"/><polygon fill="#000" stroke="#000" stroke-width="2" points="663.31 -1063.923 665.305 -1053.517 657.256 -1060.408 663.31 -1063.923"/></g><g id="node2" class="node"><title>label_select</title><polygon fill="none" stroke="#000" points="819.114 -1113.5 796.795 -1131.5 752.157 -1131.5 729.838 -1113.5 752.157 -1095.5 796.795 -1095.5 819.114 -1113.5"/><text x="774.476" y="-1109.3" fill="#000" font-family="Times,serif" font-size="14" text-anchor="middle">LABEL</text></g><g id="edge3" class="edge"><title>label_select-&gt;recv</title><path fill="none" stroke="#000" stroke-width="2" d="M756.695,-1095.1262C747.1922,-1085.3066 735.0954,-1072.8066 723.5317,-1060.8574"/><polygon fill="#000" stroke="#000" stroke-width="2" points="725.898 -1058.27 716.428 -1053.517 720.867 -1063.138 725.898 -1058.27"/></g><g id="node3" class="node"><title>ESI_REQ</title><polygon fill="none" stroke="#000" points="530.533 -1113.5 501.005 -1131.5 441.948 -1131.5 412.419 -1113.5 441.948 -1095.5 501.005 -1095.5 530.533 -1113.5"/><text x="471.476" y="-1109.3" fill="#000" font-family="Times,serif" font-size="14" text-anchor="middle">ESI request</text></g><g id="edge1" class="edge"><title>ESI_REQ-&gt;recv</title><path fill="none" stroke="#000" d="M506.1723,-1098.351C531.3859,-1087.3422 566.6499,-1071.9452 599.1673,-1057.7475"/><polygon fill="#000" stroke="#000" points="600.94 -1060.793 608.704 -1053.583 598.139 -1054.377 600.94 -1060.793"/></g><g id="node4" class="node"><title>RESTART</title><text x="919.476" y="-1186.8" fill="#000" font-family="Times,serif" font-size="14" text-anchor="middle">RESTART</text></g><g id="node24" class="node"><title>restart</title><polygon fill="none" stroke="silver" points="837.169 -1091.5 837.169 -1135.5 1001.783 -1135.5 1001.783 -1091.5 837.169 -1091.5"/><text x="919.476" y="-1120.3" fill="silver" font-family="Times,serif" font-size="14" text-anchor="middle">cnt_restart:</text><polyline fill="none" stroke="silver" points="837.169 -1113.5 1001.783 -1113.5"/><text x="854.497" y="-1098.3" fill="silver" font-family="Times,serif" font-size="14" text-anchor="middle">fail</text><polyline fill="none" stroke="silver" points="871.824 -1091.5 871.824 -1113.5"/><text x="889.931" y="-1098.3" fill="silver" font-family="Times,serif" font-size="14" text-anchor="middle">ok?</text><polyline fill="none" stroke="silver" points="908.038 -1091.5 908.038 -1113.5"/><text x="954.911" y="-1098.3" fill="silver" font-family="Times,serif" font-size="14" text-anchor="middle">max_restarts?</text></g><g id="edge30" class="edge"><title>RESTART-&gt;restart</title><path fill="none" stroke="#a020f0" d="M919.4761,-1172.6336C919.4761,-1164.5682 919.4761,-1154.8557 919.4761,-1145.6545"/><polygon fill="#a020f0" stroke="#a020f0" points="922.976 -1145.598 919.476 -1135.598 915.976 -1145.598 922.976 -1145.598"/></g><g id="node26" class="node"><title>hash</title><polygon fill="none" stroke="#000" points="577.686 -883.5 577.686 -949.5 701.267 -949.5 701.267 -883.5 577.686 -883.5"/><text x="639.476" y="-934.3" fill="#000" font-family="Times,serif" font-size="14" text-anchor="middle">cnt_recv:</text><polyline fill="none" stroke="#000" points="577.686 -927.5 701.267 -927.5"/><text x="617.288" y="-912.3" fill="#000" font-family="Times,serif" font-size="14" text-anchor="middle">vcl_hash{}</text><polyline fill="none" stroke="#000" points="656.891 -905.5 656.891 -927.5"/><text x="679.079" y="-912.3" fill="#000" font-family="Times,serif" font-size="14" text-anchor="middle">req.*</text><polyline fill="none" stroke="#000" points="577.686 -905.5 701.267 -905.5"/><text x="639.13" y="-890.3" fill="#000" font-family="Times,serif" font-size="14" text-anchor="middle">lookup</text></g><g id="edge33" class="edge"><title>recv:hash-&gt;hash</title><path fill="none" stroke="#0f0" stroke-width="2" d="M572.4761,-987.5C572.4761,-976.3407 576.9083,-966.2249 583.4928,-957.3541"/><polygon fill="#0f0" stroke="#0f0" stroke-width="2" points="586.296 -959.459 590.08 -949.563 580.951 -954.94 586.296 -959.459"/></g><g id="edge34" class="edge"><title>recv:pipe-&gt;hash</title><path fill="none" stroke="orange" stroke-width="2" d="M701.4761,-987.5C701.4761,-976.7108 697.3639,-966.7698 691.2576,-957.9556"/><polygon fill="orange" stroke="orange" stroke-width="2" points="693.807 -955.536 684.861 -949.859 688.314 -959.876 693.807 -955.536"/></g><g id="edge35" class="edge"><title>recv:pass-&gt;hash</title><path fill="none" stroke="red" stroke-width="2" d="M661.4761,-987.5C661.4761,-978.2127 659.7374,-968.536 657.2375,-959.4227"/><polygon fill="red" stroke="red" stroke-width="2" points="660.562 -958.326 654.273 -949.8 653.872 -960.387 660.562 -958.326"/></g><g id="edge40" class="edge"><title>recv:s-&gt;hash</title><path fill="none" stroke="#a020f0" stroke-width="2" d="M617.4761,-987.5C617.4761,-978.2127 619.2148,-968.536 621.7146,-959.4227"/><polygon fill="#a020f0" stroke="#a020f0" stroke-width="2" points="625.08 -960.387 624.68 -949.8 618.39 -958.326 625.08 -960.387"/></g><g id="node28" class="node"><title>vcl_label</title><text x="835.476" y="-919.3" fill="#000" font-family="Times,serif" font-size="14" text-anchor="middle">switch to vcl</text><text x="835.476" y="-905.3" fill="#000" font-family="Times,serif" font-size="14" text-anchor="middle">LABEL</text></g><g id="edge41" class="edge"><title>recv:s-&gt;vcl_label</title><path fill="none" stroke="#000" d="M835.4761,-987.5C835.4761,-973.4402 835.4761,-957.8143 835.4761,-944.8091"/><polygon fill="#000" stroke="#000" points="838.976 -944.593 835.476 -934.593 831.976 -944.593 838.976 -944.593"/></g><g id="node6" class="node"><title>SYNTH</title><text x="510.476" y="-307.8" fill="#000" font-family="Times,serif" font-size="14" text-anchor="middle">SYNTH</text></g><g id="node12" class="node"><title>synth</title><polygon fill="none" stroke="#000" points="404.224 -157.5 404.224 -245.5 544.728 -245.5 544.728 -157.5 404.224 -157.5"/><text x="474.476" y="-230.3" fill="#000" font-family="Times,serif" font-size="14" text-anchor="middle">cnt_synth:</text><polyline fill="none" stroke="#000" points="404.224 -223.5 544.728 -223.5"/><text x="447.665" y="-197.3" fill="#000" font-family="Times,serif" font-size="14" text-anchor="middle">vcl_synth{}</text><polyline fill="none" stroke="#000" points="491.105 -179.5 491.105 -223.5"/><text x="517.517" y="-208.3" fill="#000" font-family="Times,serif" font-size="14" text-anchor="middle">req.*</text><polyline fill="none" stroke="#000" points="491.105 -201.5 543.929 -201.5"/><text x="517.517" y="-186.3" fill="#000" font-family="Times,serif" font-size="14" text-anchor="middle">resp.*</text><polyline fill="none" stroke="#000" points="404.224 -179.5 544.728 -179.5"/><text x="421.552" y="-164.3" fill="#000" font-family="Times,serif" font-size="14" text-anchor="middle">fail</text><polyline fill="none" stroke="#000" points="438.879 -157.5 438.879 -179.5"/><text x="466.314" y="-164.3" fill="#000" font-family="Times,serif" font-size="14" text-anchor="middle">deliver</text><polyline fill="none" stroke="#000" points="493.748 -157.5 493.748 -179.5"/><text x="519.238" y="-164.3" fill="#000" font-family="Times,serif" font-size="14" text-anchor="middle">restart</text></g><g id="edge10" class="edge"><title>SYNTH-&gt;synth</title><path fill="none" stroke="#a020f0" d="M504.5314,-293.7532C501.059,-283.0948 496.4788,-269.0362 491.9438,-255.1161"/><polygon fill="#a020f0" stroke="#a020f0" points="495.251 -253.969 488.825 -245.545 488.595 -256.137 495.251 -253.969"/></g><g id="node7" class="node"><title>FAIL</title><text x="586.476" y="-307.8" fill="#000" font-family="Times,serif" font-size="14" text-anchor="middle">FAIL</text></g><g id="edge9" class="edge"><title>FAIL-&gt;synth</title><path fill="none" stroke="#a020f0" d="M567.9816,-293.7532C556.5552,-282.4799 541.2734,-267.4028 526.3801,-252.7089"/><polygon fill="#a020f0" stroke="#a020f0" points="528.695 -250.076 519.119 -245.545 523.779 -255.059 528.695 -250.076"/></g><g id="node8" class="node"><title>deliver</title><polygon fill="none" stroke="#000" points="199.055 -146.5 199.055 -256.5 385.897 -256.5 385.897 -146.5 199.055 -146.5"/><text x="292.476" y="-241.3" fill="#000" font-family="Times,serif" font-size="14" text-anchor="middle">cnt_deliver:</text><polyline fill="none" stroke="#000" points="199.055 -234.5 385.897 -234.5"/><text x="292.476" y="-219.3" fill="#000" font-family="Times,serif" font-size="14" text-anchor="middle">Filter obj.-&gt;resp.</text><polyline fill="none" stroke="#000" points="199.055 -212.5 385.897 -212.5"/><text x="256.261" y="-186.3" fill="#000" font-family="Times,serif" font-size="14" text-anchor="middle">vcl_deliver{}</text><polyline fill="none" stroke="#000" points="313.467 -168.5 313.467 -212.5"/><text x="349.379" y="-197.3" fill="#000" font-family="Times,serif" font-size="14" text-anchor="middle">req.*</text><polyline fill="none" stroke="#000" points="313.467 -190.5 385.291 -190.5"/><text x="349.379" y="-175.3" fill="#000" font-family="Times,serif" font-size="14" text-anchor="middle">resp.*</text><polyline fill="none" stroke="#000" points="199.055 -168.5 385.897 -168.5"/><text x="216.383" y="-153.3" fill="#000" font-family="Times,serif" font-size="14" text-anchor="middle">fail</text><polyline fill="none" stroke="#000" points="233.71 -146.5 233.71 -168.5"/><text x="259.2" y="-153.3" fill="#000" font-family="Times,serif" font-size="14" text-anchor="middle">restart</text><polyline fill="none" stroke="#000" points="284.69 -146.5 284.69 -168.5"/><text x="312.125" y="-153.3" fill="#000" font-family="Times,serif" font-size="14" text-anchor="middle">deliver</text><polyline fill="none" stroke="#000" points="339.559 -146.5 339.559 -168.5"/><text x="362.728" y="-153.3" fill="#000" font-family="Times,serif" font-size="14" text-anchor="middle">synth</text></g><g id="node9" class="node"><title>V1D_Deliver</title><ellipse cx="376.476" cy="-91" fill="none" stroke="#000" rx="58.482" ry="18"/><text x="376.476" y="-86.8" fill="#000" font-family="Times,serif" font-size="14" text-anchor="middle">V1D_Deliver</text></g><g id="edge4" class="edge"><title>deliver:s-&gt;V1D_Deliver</title><path fill="none" stroke="#0f0" stroke-width="2" d="M312.4761,-146.5C304.7472,-130.3337 312.1366,-117.818 324.5111,-108.7984"/><polygon fill="#0f0" stroke="#0f0" stroke-width="2" points="326.603 -111.62 333.254 -103.373 322.912 -105.672 326.603 -111.62"/></g><g id="edge5" class="edge"><title>deliver:s-&gt;V1D_Deliver</title><path fill="none" stroke="red" stroke-width="2" d="M312.4761,-146.5C312.4761,-131.8021 322.2295,-120.1217 334.1212,-111.3428"/><polygon fill="red" stroke="red" stroke-width="2" points="336.197 -114.166 342.602 -105.727 332.332 -108.33 336.197 -114.166"/></g><g id="edge6" class="edge"><title>deliver:s-&gt;V1D_Deliver</title><path fill="none" stroke="#00f" stroke-width="2" d="M312.4761,-146.5C319.0459,-132.7581 331.7437,-121.6539 344.3458,-113.0926"/><polygon fill="#00f" stroke="#00f" stroke-width="2" points="346.44 -115.908 352.979 -107.571 342.668 -110.011 346.44 -115.908"/></g><g id="node11" class="node"><title>DONE</title><ellipse cx="604.476" cy="-18" fill="none" stroke="#000" rx="34.837" ry="18"/><text x="604.476" y="-13.8" fill="#000" font-family="Times,serif" font-size="14" text-anchor="middle">DONE</text></g><g id="edge8" class="edge"><title>V1D_Deliver-&gt;DONE</title><path fill="none" stroke="#000" d="M416.9752,-78.0332C458.8242,-64.6341 523.7103,-43.8592 565.1301,-30.5976"/><polygon fill="#000" stroke="#000" points="566.414 -33.861 574.871 -27.479 564.28 -27.195 566.414 -33.861"/></g><g id="node10" class="node"><title>stream</title><ellipse cx="604.476" cy="-201.5" fill="#40e0d0" stroke="#40e0d0" rx="42.19" ry="25.412"/><text x="604.476" y="-204.3" fill="#000" font-family="Times,serif" font-size="14" text-anchor="middle">stream?</text><text x="604.476" y="-190.3" fill="#000" font-family="Times,serif" font-size="14" text-anchor="middle">body</text></g><g id="edge7" class="edge"><title>stream-&gt;V1D_Deliver</title><path fill="none" stroke="#000" stroke-dasharray="1 5" d="M587.5949,-177.9853C578.5778,-166.9085 566.6326,-154.3303 553.4761,-146 518.3124,-123.7355 473.4992,-109.9292 437.763,-101.7176"/><polygon fill="#000" stroke="#000" points="438.459 -98.287 427.94 -99.547 436.949 -105.122 438.459 -98.287"/></g><g id="edge11" class="edge"><title>synth:s-&gt;V1D_Deliver</title><path fill="none" stroke="#a020f0" d="M466.4761,-157.5C466.4761,-134.569 447.3436,-118.6467 426.7214,-108.1449"/><polygon fill="#a020f0" stroke="#a020f0" points="428.066 -104.91 417.526 -103.834 425.094 -111.248 428.066 -104.91"/></g><g id="node13" class="node"><title>see backend graph</title><text x="410.476" y="-418.8" fill="#000" font-family="Times,serif" font-size="14" text-anchor="middle">see backend graph</text></g><g id="node14" class="node"><title>BGFETCH</title><polygon fill="#40e0d0" stroke="#40e0d0" points="254.262 -441 174.69 -441 174.69 -405 254.262 -405 254.262 -441"/><text x="214.476" y="-418.8" fill="#000" font-family="Times,serif" font-size="14" text-anchor="middle">BGFETCH</text></g><g id="node15" class="node"><title>FETCH</title><polygon fill="#40e0d0" stroke="#40e0d0" points="332.815 -441 272.137 -441 272.137 -405 332.815 -405 332.815 -441"/><text x="302.476" y="-418.8" fill="#000" font-family="Times,serif" font-size="14" text-anchor="middle">FETCH</text></g><g id="node16" class="node"><title>FETCH_DONE</title><polygon fill="#40e0d0" stroke="#40e0d0" points="345.697 -330 239.255 -330 239.255 -294 345.697 -294 345.697 -330"/><text x="292.476" y="-307.8" fill="#000" font-family="Times,serif" font-size="14" text-anchor="middle">FETCH_DONE</text></g><g id="edge16" class="edge"><title>FETCH-&gt;FETCH_DONE</title><path fill="none" stroke="#000" stroke-dasharray="1 5" d="M300.8248,-404.6706C299.2542,-387.2373 296.8678,-360.7482 295.048,-340.5489"/><polygon fill="#000" stroke="#000" points="298.513 -340.002 294.13 -330.357 291.541 -340.63 298.513 -340.002"/></g><g id="node17" class="node"><title>FETCH_FAIL</title><polygon fill="#40e0d0" stroke="#40e0d0" points="461.393 -330 363.559 -330 363.559 -294 461.393 -294 461.393 -330"/><text x="412.476" y="-307.8" fill="#000" font-family="Times,serif" font-size="14" text-anchor="middle">FETCH_FAIL</text></g><g id="edge17" class="edge"><title>FETCH-&gt;FETCH_FAIL</title><path fill="none" stroke="#000" stroke-dasharray="1 5" d="M320.6403,-404.6706C338.7924,-386.3536 366.8515,-358.0394 387.1784,-337.5276"/><polygon fill="#000" stroke="#000" points="389.732 -339.923 394.285 -330.357 384.76 -334.996 389.732 -339.923"/></g><g id="edge14" class="edge"><title>FETCH_DONE-&gt;deliver</title><path fill="none" stroke="red" stroke-width="2" d="M287.3098,-293.7532C286.5135,-286.0295 286.0175,-276.5203 285.8218,-266.5721"/><polygon fill="red" stroke="red" stroke-width="2" points="289.321 -266.494 285.726 -256.527 282.322 -266.56 289.321 -266.494"/></g><g id="edge15" class="edge"><title>FETCH_DONE-&gt;deliver</title><path fill="none" stroke="#00f" stroke-width="2" d="M297.6424,-293.7532C298.4386,-286.0295 298.9346,-276.5203 299.1304,-266.5721"/><polygon fill="#00f" stroke="#00f" stroke-width="2" points="302.63 -266.56 299.226 -256.527 295.631 -266.494 302.63 -266.56"/></g><g id="edge13" class="edge"><title>FETCH_FAIL-&gt;synth</title><path fill="none" stroke="#a020f0" d="M422.7141,-293.7532C428.8094,-282.8898 436.8865,-268.4943 444.8434,-254.3132"/><polygon fill="#a020f0" stroke="#a020f0" points="447.922 -255.978 449.763 -245.545 441.818 -252.553 447.922 -255.978"/></g><g id="node18" class="node"><title>lookup2</title><polygon fill="none" stroke="#000" points="0 -582.5 0 -670.5 226.952 -670.5 226.952 -582.5 0 -582.5"/><text x="113.476" y="-655.3" fill="#000" font-family="Times,serif" font-size="14" text-anchor="middle">cnt_lookup:</text><polyline fill="none" stroke="#000" points="0 -648.5 226.952 -648.5"/><text x="62.661" y="-622.3" fill="#000" font-family="Times,serif" font-size="14" text-anchor="middle">vcl_hit{}</text><polyline fill="none" stroke="#000" points="125.322 -604.5 125.322 -648.5"/><text x="176.017" y="-633.3" fill="#000" font-family="Times,serif" font-size="14" text-anchor="middle">req.*</text><polyline fill="none" stroke="#000" points="125.322 -626.5 226.712 -626.5"/><text x="176.017" y="-611.3" fill="#000" font-family="Times,serif" font-size="14" text-anchor="middle">obj.*</text><polyline fill="none" stroke="#000" points="0 -604.5 226.952 -604.5"/><text x="17.328" y="-589.3" fill="#000" font-family="Times,serif" font-size="14" text-anchor="middle">fail</text><polyline fill="none" stroke="#000" points="34.655 -582.5 34.655 -604.5"/><text x="62.09" y="-589.3" fill="#000" font-family="Times,serif" font-size="14" text-anchor="middle">deliver</text><polyline fill="none" stroke="#000" points="89.524 -582.5 89.524 -604.5"/><text x="109.58" y="-589.3" fill="#000" font-family="Times,serif" font-size="14" text-anchor="middle">pass</text><polyline fill="none" stroke="#000" points="129.635 -582.5 129.635 -604.5"/><text x="155.125" y="-589.3" fill="#000" font-family="Times,serif" font-size="14" text-anchor="middle">restart</text><polyline fill="none" stroke="#000" points="180.614 -582.5 180.614 -604.5"/><text x="203.783" y="-589.3" fill="#000" font-family="Times,serif" font-size="14" text-anchor="middle">synth</text></g><g id="edge23" class="edge"><title>lookup2:s-&gt;deliver:n</title><path fill="none" stroke="#0f0" stroke-width="2" d="M62.4761,-582.5C62.4761,-545.8367 104.4761,-548.1633 104.4761,-511.5 104.4761,-511.5 104.4761,-511.5 104.4761,-312 104.4761,-228.623 276.6669,-333.7963 291.4646,-266.6228"/><polygon fill="#0f0" stroke="#0f0" stroke-width="2" points="294.964 -266.798 292.476 -256.5 287.999 -266.102 294.964 -266.798"/></g><g id="edge12" class="edge"><title>lookup2:s-&gt;BGFETCH</title><path fill="none" stroke="#0f0" d="M62.4761,-582.5C62.4761,-556.2881 97.5468,-579.7806 118.4761,-564 158.3344,-533.947 187.3246,-482.3397 202.4781,-450.5924"/><polygon fill="#0f0" stroke="#0f0" points="205.698 -451.967 206.733 -441.423 199.349 -449.021 205.698 -451.967"/><text x="225.186" y="-514.3" fill="#000" font-family="Times,serif" font-size="14" text-anchor="middle">parallel</text><text x="225.186" y="-500.3" fill="#000" font-family="Times,serif" font-size="14" text-anchor="middle">if obj expired</text></g><g id="node21" class="node"><title>pass</title><polygon fill="none" stroke="#000" points="353.5 -478.5 353.5 -544.5 529.452 -544.5 529.452 -478.5 353.5 -478.5"/><text x="441.476" y="-529.3" fill="#000" font-family="Times,serif" font-size="14" text-anchor="middle">cnt_pass:</text><polyline fill="none" stroke="#000" points="353.5 -522.5 529.452 -522.5"/><text x="405.327" y="-507.3" fill="#000" font-family="Times,serif" font-size="14" text-anchor="middle">vcl_pass{}</text><polyline fill="none" stroke="#000" points="457.153 -500.5 457.153 -522.5"/><text x="492.841" y="-507.3" fill="#000" font-family="Times,serif" font-size="14" text-anchor="middle">req.*</text><polyline fill="none" stroke="#000" points="353.5 -500.5 529.452 -500.5"/><text x="370.828" y="-485.3" fill="#000" font-family="Times,serif" font-size="14" text-anchor="middle">fail</text><polyline fill="none" stroke="#000" points="388.155 -478.5 388.155 -500.5"/><text x="410.145" y="-485.3" fill="#000" font-family="Times,serif" font-size="14" text-anchor="middle">fetch</text><polyline fill="none" stroke="#000" points="432.135 -478.5 432.135 -500.5"/><text x="455.304" y="-485.3" fill="#000" font-family="Times,serif" font-size="14" text-anchor="middle">synth</text><polyline fill="none" stroke="#000" points="478.473 -478.5 478.473 -500.5"/><text x="503.962" y="-485.3" fill="#000" font-family="Times,serif" font-size="14" text-anchor="middle">restart</text></g><g id="edge24" class="edge"><title>lookup2:s-&gt;pass</title><path fill="none" stroke="red" stroke-width="2" d="M109.4761,-582.5C109.4761,-580.9908 245.5165,-552.3208 343.4315,-531.881"/><polygon fill="red" stroke="red" stroke-width="2" points="344.304 -535.274 353.378 -529.806 342.874 -528.422 344.304 -535.274"/></g><g id="node19" class="node"><title>lookup</title><polygon fill="none" stroke="silver" points="143.442 -757.5 143.442 -823.5 451.51 -823.5 451.51 -757.5 143.442 -757.5"/><text x="297.476" y="-808.3" fill="silver" font-family="Times,serif" font-size="14" text-anchor="middle">cnt_lookup:</text><polyline fill="none" stroke="silver" points="143.442 -801.5 451.51 -801.5"/><text x="297.476" y="-786.3" fill="silver" font-family="Times,serif" font-size="14" text-anchor="middle">hash lookup</text><polyline fill="none" stroke="silver" points="143.442 -779.5 451.51 -779.5"/><text x="161.939" y="-764.3" fill="silver" font-family="Times,serif" font-size="14" text-anchor="middle">hit?</text><polyline fill="none" stroke="silver" points="180.435 -757.5 180.435 -779.5"/><text x="204.38" y="-764.3" fill="silver" font-family="Times,serif" font-size="14" text-anchor="middle">miss?</text><polyline fill="none" stroke="silver" points="228.325 -757.5 228.325 -779.5"/><text x="272.347" y="-764.3" fill="silver" font-family="Times,serif" font-size="14" text-anchor="middle">hit-for-miss?</text><polyline fill="none" stroke="silver" points="316.369 -757.5 316.369 -779.5"/><text x="359.608" y="-764.3" fill="silver" font-family="Times,serif" font-size="14" text-anchor="middle">hit-for-pass?</text><polyline fill="none" stroke="silver" points="402.848 -757.5 402.848 -779.5"/><text x="427.179" y="-764.3" fill="silver" font-family="Times,serif" font-size="14" text-anchor="middle">busy?</text></g><g id="edge22" class="edge"><title>lookup:s-&gt;lookup2</title><path fill="none" stroke="#0f0" stroke-width="2" d="M161.4761,-757.5C161.4761,-730.8892 152.6358,-702.9921 142.5429,-679.8136"/><polygon fill="#0f0" stroke="#0f0" stroke-width="2" points="145.643 -678.174 138.32 -670.518 139.269 -681.07 145.643 -678.174"/></g><g id="edge18" class="edge"><title>lookup:s-&gt;lookup:ne</title><path fill="none" stroke="silver" d="M427.4761,-757.5C457.5098,-739 469.5098,-739 469.5098,-790.5 469.5098,-830.7344 462.1855,-839.5356 456.1041,-832.6394"/><polygon fill="silver" stroke="silver" points="459.116 -830.84 451.476 -823.5 452.871 -834.003 459.116 -830.84"/><text x="500.815" y="-786.3" fill="silver" font-family="Times,serif" font-size="14" text-anchor="middle">waitinglist</text></g><g id="node20" class="node"><title>miss</title><polygon fill="none" stroke="#000" points="245.445 -593.5 245.445 -659.5 461.507 -659.5 461.507 -593.5 245.445 -593.5"/><text x="353.476" y="-644.3" fill="#000" font-family="Times,serif" font-size="14" text-anchor="middle">cnt_miss:</text><polyline fill="none" stroke="#000" points="245.445 -637.5 461.507 -637.5"/><text x="308.054" y="-622.3" fill="#000" font-family="Times,serif" font-size="14" text-anchor="middle">vcl_miss{}</text><polyline fill="none" stroke="#000" points="370.664 -615.5 370.664 -637.5"/><text x="415.852" y="-622.3" fill="#000" font-family="Times,serif" font-size="14" text-anchor="middle">req.*</text><polyline fill="none" stroke="#000" points="245.445 -615.5 461.507 -615.5"/><text x="262.772" y="-600.3" fill="#000" font-family="Times,serif" font-size="14" text-anchor="middle">fail</text><polyline fill="none" stroke="#000" points="280.1 -593.5 280.1 -615.5"/><text x="302.09" y="-600.3" fill="#000" font-family="Times,serif" font-size="14" text-anchor="middle">fetch</text><polyline fill="none" stroke="#000" points="324.08 -593.5 324.08 -615.5"/><text x="347.248" y="-600.3" fill="#000" font-family="Times,serif" font-size="14" text-anchor="middle">synth</text><polyline fill="none" stroke="#000" points="370.418 -593.5 370.418 -615.5"/><text x="395.907" y="-600.3" fill="#000" font-family="Times,serif" font-size="14" text-anchor="middle">restart</text><polyline fill="none" stroke="#000" points="421.397 -593.5 421.397 -615.5"/><text x="441.452" y="-600.3" fill="#000" font-family="Times,serif" font-size="14" text-anchor="middle">pass</text></g><g id="edge19" class="edge"><title>lookup:s-&gt;miss</title><path fill="none" stroke="#00f" stroke-width="2" d="M204.4761,-757.5C204.4761,-717.3321 235.3955,-686.5759 269.0645,-664.9919"/><polygon fill="#00f" stroke="#00f" stroke-width="2" points="270.982 -667.922 277.667 -659.702 267.315 -661.959 270.982 -667.922"/></g><g id="edge20" class="edge"><title>lookup:s-&gt;miss</title><path fill="none" stroke="#00f" stroke-width="2" d="M272.4761,-757.5C272.4761,-723.8667 292.0301,-691.6593 311.9231,-667.5959"/><polygon fill="#00f" stroke="#00f" stroke-width="2" points="314.795 -669.624 318.655 -659.757 309.484 -665.063 314.795 -669.624"/><text x="323.623" y="-705.8" fill="#000" font-family="Times,serif" font-size="14" text-anchor="middle">req.</text><text x="323.623" y="-691.8" fill="#000" font-family="Times,serif" font-size="14" text-anchor="middle">is_hitmiss</text></g><g id="edge21" class="edge"><title>lookup:s-&gt;pass</title><path fill="none" stroke="red" stroke-width="2" d="M359.4761,-757.5C359.4761,-694.956 443.0235,-727.1971 470.4761,-671 488.5224,-634.0581 476.5305,-587.3408 462.9055,-554.0331"/><polygon fill="red" stroke="red" stroke-width="2" points="466.01 -552.393 458.85 -544.584 459.578 -555.154 466.01 -552.393"/><text x="508.84" y="-629.3" fill="#000" font-family="Times,serif" font-size="14" text-anchor="middle">req.</text><text x="508.84" y="-615.3" fill="#000" font-family="Times,serif" font-size="14" text-anchor="middle">is_hitpass</text></g><g id="edge25" class="edge"><title>miss:s-&gt;FETCH</title><path fill="none" stroke="#00f" stroke-width="2" d="M302.4761,-593.5C302.4761,-543.4187 302.4761,-485.0629 302.4761,-451.2444"/><polygon fill="#00f" stroke="#00f" stroke-width="2" points="305.976 -451.168 302.476 -441.168 298.976 -451.168 305.976 -451.168"/></g><g id="edge26" class="edge"><title>miss:s-&gt;pass</title><path fill="none" stroke="red" stroke-width="2" d="M441.4761,-593.5C441.4761,-580.9322 441.4761,-567.2809 441.4761,-554.7879"/><polygon fill="red" stroke="red" stroke-width="2" points="444.976 -554.615 441.476 -544.615 437.976 -554.615 444.976 -554.615"/></g><g id="edge27" class="edge"><title>pass:s-&gt;FETCH</title><path fill="none" stroke="red" stroke-width="2" d="M410.4761,-478.5C410.4761,-474.5239 372.9556,-455.9536 342.145,-441.3746"/><polygon fill="red" stroke="red" stroke-width="2" points="343.386 -438.09 332.848 -436.999 340.405 -444.424 343.386 -438.09"/></g><g id="node22" class="node"><title>pipe</title><polygon fill="none" stroke="#000" points="754.858 -735.5 754.858 -845.5 890.094 -845.5 890.094 -735.5 754.858 -735.5"/><text x="822.476" y="-830.3" fill="#000" font-family="Times,serif" font-size="14" text-anchor="middle">cnt_pipe:</text><polyline fill="none" stroke="#000" points="754.858 -823.5 890.094 -823.5"/><text x="822.476" y="-808.3" fill="#000" font-family="Times,serif" font-size="14" text-anchor="middle">filter req.*-&gt;bereq.*</text><polyline fill="none" stroke="#000" points="754.858 -801.5 890.094 -801.5"/><text x="793.681" y="-775.3" fill="#000" font-family="Times,serif" font-size="14" text-anchor="middle">vcl_pipe{}</text><polyline fill="none" stroke="#000" points="832.504 -757.5 832.504 -801.5"/><text x="861.299" y="-786.3" fill="#000" font-family="Times,serif" font-size="14" text-anchor="middle">req.*</text><polyline fill="none" stroke="#000" points="832.504 -779.5 890.094 -779.5"/><text x="861.299" y="-764.3" fill="#000" font-family="Times,serif" font-size="14" text-anchor="middle">bereq.*</text><polyline fill="none" stroke="#000" points="754.858 -757.5 890.094 -757.5"/><text x="774.186" y="-742.3" fill="#000" font-family="Times,serif" font-size="14" text-anchor="middle">fail</text><polyline fill="none" stroke="#000" points="793.513 -735.5 793.513 -757.5"/><text x="816.065" y="-742.3" fill="#000" font-family="Times,serif" font-size="14" text-anchor="middle">pipe</text><polyline fill="none" stroke="#000" points="838.617 -735.5 838.617 -757.5"/><text x="864.286" y="-742.3" fill="#000" font-family="Times,serif" font-size="14" text-anchor="middle">synth</text></g><g id="node23" class="node"><title>pipe_do</title><ellipse cx="834.476" cy="-626.5" fill="none" stroke="#000" rx="97.238" ry="25.412"/><text x="834.476" y="-629.3" fill="#000" font-family="Times,serif" font-size="14" text-anchor="middle">send bereq,</text><text x="834.476" y="-615.3" fill="#000" font-family="Times,serif" font-size="14" text-anchor="middle">copy bytes until close</text></g><g id="edge28" class="edge"><title>pipe:pipe-&gt;pipe_do</title><path fill="none" stroke="orange" stroke-width="2" d="M816.4761,-735.5C816.4761,-710.7759 821.04,-683.3137 825.5717,-662.1398"/><polygon fill="orange" stroke="orange" stroke-width="2" points="829.008 -662.813 827.774 -652.29 822.176 -661.285 829.008 -662.813"/></g><g id="edge29" class="edge"><title>pipe_do-&gt;DONE</title><path fill="none" stroke="orange" stroke-width="2" d="M816.4249,-601.3665C802.103,-578.9288 784.4761,-544.5915 784.4761,-511.5 784.4761,-511.5 784.4761,-511.5 784.4761,-91 784.4761,-61.4581 700.1619,-38.1594 646.9439,-26.396"/><polygon fill="orange" stroke="orange" stroke-width="2" points="647.586 -22.954 637.073 -24.267 646.11 -29.797 647.586 -22.954"/></g><g id="edge31" class="edge"><title>restart:s-&gt;recv</title><path fill="none" stroke="#000" d="M889.4761,-1091.5C889.4761,-1078.1582 873.776,-1066.7633 851.0656,-1057.2594"/><polygon fill="#000" stroke="#000" points="852.259 -1053.968 841.671 -1053.575 849.703 -1060.485 852.259 -1053.968"/></g><g id="node25" class="node"><title>err_restart</title><text x="954.476" y="-1016.3" fill="#000" font-family="Times,serif" font-size="14" text-anchor="middle">SYNTH</text></g><g id="edge32" class="edge"><title>restart:s-&gt;err_restart</title><path fill="none" stroke="#a020f0" d="M954.4761,-1091.5C954.4761,-1077.4402 954.4761,-1061.8143 954.4761,-1048.8091"/><polygon fill="#a020f0" stroke="#a020f0" points="957.976 -1048.593 954.476 -1038.593 950.976 -1048.593 957.976 -1048.593"/></g><g id="edge36" class="edge"><title>hash:w-&gt;lookup</title><path fill="none" stroke="#0f0" stroke-width="2" d="M577.4761,-894.5C499.0047,-894.5 415.4676,-858.1605 360.273,-828.4433"/><polygon fill="#0f0" stroke="#0f0" stroke-width="2" points="361.777 -825.277 351.324 -823.549 358.418 -831.418 361.777 -825.277"/></g><g id="edge38" class="edge"><title>hash:s-&gt;pass</title><path fill="none" stroke="red" stroke-width="2" d="M639.4761,-883.5C639.4761,-855.3654 677.7748,-871.1044 690.4761,-846 712.7475,-801.98 708.976,-780.7333 690.4761,-735 656.8931,-651.9802 573.4546,-587.8964 512.3878,-550.0499"/><polygon fill="red" stroke="red" stroke-width="2" points="513.909 -546.878 503.549 -544.657 510.263 -552.853 513.909 -546.878"/></g><g id="edge39" class="edge"><title>hash:e-&gt;pipe</title><path fill="none" stroke="orange" stroke-width="2" d="M700.4761,-894.5C731.2326,-894.5 758.1692,-875.1206 778.8526,-853.0929"/><polygon fill="orange" stroke="orange" stroke-width="2" points="781.551 -855.326 785.624 -845.545 776.341 -850.652 781.551 -855.326"/></g><g id="node27" class="node"><title>purge</title><polygon fill="none" stroke="#000" points="549.49 -757.5 549.49 -823.5 681.462 -823.5 681.462 -757.5 549.49 -757.5"/><text x="615.476" y="-808.3" fill="#000" font-family="Times,serif" font-size="14" text-anchor="middle">cnt_purge:</text><polyline fill="none" stroke="#000" points="549.49 -801.5 681.462 -801.5"/><text x="592.576" y="-786.3" fill="#000" font-family="Times,serif" font-size="14" text-anchor="middle">vcl_purge{}</text><polyline fill="none" stroke="#000" points="635.663 -779.5 635.663 -801.5"/><text x="658.351" y="-786.3" fill="#000" font-family="Times,serif" font-size="14" text-anchor="middle">req.*</text><polyline fill="none" stroke="#000" points="549.49 -779.5 681.462 -779.5"/><text x="566.817" y="-764.3" fill="#000" font-family="Times,serif" font-size="14" text-anchor="middle">fail</text><polyline fill="none" stroke="#000" points="584.145 -757.5 584.145 -779.5"/><text x="607.314" y="-764.3" fill="#000" font-family="Times,serif" font-size="14" text-anchor="middle">synth</text><polyline fill="none" stroke="#000" points="630.483 -757.5 630.483 -779.5"/><text x="655.973" y="-764.3" fill="#000" font-family="Times,serif" font-size="14" text-anchor="middle">restart</text></g><g id="edge37" class="edge"><title>hash:s-&gt;purge:n</title><path fill="none" stroke="#a020f0" stroke-width="2" d="M639.4761,-883.5C639.4761,-858.5936 621.4277,-853.3619 616.6336,-833.6816"/><polygon fill="#a020f0" stroke="#a020f0" stroke-width="2" points="620.083 -833.041 615.476 -823.5 613.128 -833.831 620.083 -833.041"/></g></g></svg>