<svg xmlns="http://www.w3.org/2000/svg" xmlns:xlink="http://www.w3.org/1999/xlink" width="614pt" height="808" viewBox="36 36 577.54 570"><g id="graph0" class="graph" transform="scale(1 1) rotate(0) translate(40 566)"><title>vcl_center</title><polygon fill="#fff" stroke="none" points="-4 4 -4 -530 537.544 -530 537.544 4 -4 4"/><g id="node1" class="node"><title>acceptor</title><ellipse cx="413.544" cy="-508" fill="none" stroke="#000" rx="40.094" ry="18"/><text x="413.544" y="-504.3" font-family="Times,serif" font-size="14" text-anchor="middle">acceptor</text></g><g id="node2" class="node"><title>http1_wait</title><ellipse cx="413.544" cy="-421" fill="none" stroke="#000" rx="48.192" ry="18"/><text x="413.544" y="-417.3" font-family="Times,serif" font-size="14" text-anchor="middle">http1_wait</text></g><g id="edge1" class="edge"><title>acceptor-&gt;http1_wait</title><path fill="none" stroke="#000" d="M413.544,-489.799C413.544,-478.163 413.544,-462.548 413.544,-449.237"/><polygon fill="#000" stroke="#000" points="417.044 -449.175 413.544 -439.175 410.044 -449.175 417.044 -449.175"/><text x="465.044" y="-460.8" font-family="Times,serif" font-size="14" text-anchor="middle">S_STP_NEWREQ</text></g><g id="node4" class="node"><title>CNT_Request</title><ellipse cx="123.544" cy="-319" fill="none" stroke="#000" rx="61.189" ry="18"/><text x="123.544" y="-315.3" font-family="Times,serif" font-size="14" text-anchor="middle">CNT_Request</text></g><g id="edge4" class="edge"><title>http1_wait-&gt;CNT_Request</title><path fill="none" stroke="#000" d="M365.828,-418.624C301.217,-415.905 190.213,-407.948 157.544,-385 144.546,-375.87 136.143,-360.207 130.942,-346.544"/><polygon fill="#000" stroke="#000" points="134.25 -345.4 127.702 -337.071 127.627 -347.665 134.25 -345.4"/><text x="213.044" y="-373.8" font-family="Times,serif" font-size="14" text-anchor="middle">S_STP_WORKING</text><text x="213.044" y="-358.8" font-family="Times,serif" font-size="14" text-anchor="middle">R_STP_RECV</text></g><g id="node5" class="node"><title>disembark</title><ellipse cx="331.544" cy="-91" fill="none" stroke="#000" rx="48.192" ry="18"/><text x="331.544" y="-87.3" font-family="Times,serif" font-size="14" text-anchor="middle">disembark</text></g><g id="edge5" class="edge"><title>http1_wait-&gt;disembark</title><path fill="none" stroke="#000" d="M415.457,-402.989C417.361,-378.708 417.784,-333.462 399.544,-301 393.185,-289.684 382.782,-294.383 376.544,-283 343.071,-221.917 388.812,-191.094 361.544,-127 359.933,-123.214 357.76,-119.538 355.315,-116.079"/><polygon fill="#000" stroke="#000" points="357.823 -113.612 348.842 -107.992 352.358 -117.987 357.823 -113.612"/><text x="413.044" y="-264.3" font-family="Times,serif" font-size="14" text-anchor="middle">Session close</text></g><g id="edge6" class="edge"><title>http1_wait-&gt;disembark</title><path fill="none" stroke="green" d="M422.307,-403.301C437.002,-373.118 463.679,-307.551 449.544,-253 433.475,-190.986 421.974,-174.996 379.544,-127 375.151,-122.031 369.936,-117.349 364.589,-113.125"/><polygon fill="green" stroke="green" points="366.294 -110.032 356.177 -106.886 362.124 -115.654 366.294 -110.032"/><text x="476.044" y="-264.3" font-family="Times,serif" font-size="14" text-anchor="middle">Timeout</text></g><g id="node3" class="node"><title>hash</title><ellipse cx="136.544" cy="-18" fill="none" stroke="#000" rx="27" ry="18"/><text x="136.544" y="-14.3" font-family="Times,serif" font-size="14" text-anchor="middle">hash</text></g><g id="edge2" class="edge"><title>hash-&gt;CNT_Request</title><path fill="none" stroke="#00f" d="M115.322,-29.1756C84.8323,-45.1329 29.8514,-79.2306 7.54392,-127 -22.451,-191.231 49.4699,-261.077 93.1002,-295.8"/><polygon fill="#00f" stroke="#00f" points="91.108 -298.684 101.149 -302.065 95.407 -293.16 91.108 -298.684"/><text x="63.044" y="-160.8" font-family="Times,serif" font-size="14" text-anchor="middle">Busy object</text><text x="63.044" y="-145.8" font-family="Times,serif" font-size="14" text-anchor="middle">S_STP_WORKING</text><text x="63.044" y="-130.8" font-family="Times,serif" font-size="14" text-anchor="middle">R_STP_LOOKUP</text></g><g id="edge9" class="edge"><title>CNT_Request-&gt;disembark</title><path fill="none" stroke="#00f" d="M114.911,-301.078C102.927,-274.969 85.1119,-224.299 107.544,-190 144.65,-133.264 222.638,-109.177 276.058,-99.084"/><polygon fill="#00f" stroke="#00f" points="276.832 -102.501 286.063 -97.302 275.604 -95.61 276.832 -102.501"/><text x="163.044" y="-223.8" font-family="Times,serif" font-size="14" text-anchor="middle">Busy object</text><text x="163.044" y="-208.8" font-family="Times,serif" font-size="14" text-anchor="middle">S_STP_WORKING</text><text x="163.044" y="-193.8" font-family="Times,serif" font-size="14" text-anchor="middle">R_STP_LOOKUP</text></g><g id="node7" class="node"><title>http1_cleanup</title><ellipse cx="287.544" cy="-212.5" fill="none" stroke="#000" rx="60.389" ry="18"/><text x="287.544" y="-208.8" font-family="Times,serif" font-size="14" text-anchor="middle">http1_cleanup</text></g><g id="edge10" class="edge"><title>CNT_Request-&gt;http1_cleanup</title><path fill="none" stroke="#000" d="M122.518,-300.739C122.631,-286.098 125.264,-265.533 137.544,-253 161.837,-228.206 179.978,-243.845 213.544,-235 221.094,-233.011 229.047,-230.811 236.828,-228.6"/><polygon fill="#000" stroke="#000" points="237.902 -231.933 246.547 -225.809 235.969 -225.205 237.902 -231.933"/></g><g id="edge3" class="edge"><title>disembark-&gt;hash</title><path fill="none" stroke="#00f" stroke-dasharray="1 5" d="M298.022,-77.7947C261.99,-64.6754 205.087,-43.9568 169.339,-30.9408"/><polygon fill="#00f" stroke="#00f" points="170.446 -27.619 159.852 -27.487 168.051 -34.197 170.446 -27.619"/></g><g id="node6" class="node"><title>waiter</title><ellipse cx="376.544" cy="-18" fill="none" stroke="#000" rx="32.494" ry="18"/><text x="376.544" y="-14.3" font-family="Times,serif" font-size="14" text-anchor="middle">waiter</text></g><g id="edge7" class="edge"><title>disembark-&gt;waiter</title><path fill="none" stroke="green" stroke-dasharray="1 5" d="M342.208,-73.174C347.78,-64.3831 354.705,-53.4564 360.874,-43.7236"/><polygon fill="green" stroke="green" points="363.869 -45.537 366.266 -35.217 357.956 -41.789 363.869 -45.537"/></g><g id="edge8" class="edge"><title>waiter-&gt;http1_wait</title><path fill="none" stroke="green" d="M409.074,-19.7692C455.061,-22.7818 533.544,-35.8546 533.544,-90 533.544,-320 533.544,-320 533.544,-320 533.544,-361.025 491.641,-388.484 457.357,-404.084"/><polygon fill="green" stroke="green" points="455.714 -400.982 447.931 -408.171 458.498 -407.404 455.714 -400.982"/></g><g id="edge13" class="edge"><title>http1_cleanup-&gt;http1_wait</title><path fill="none" stroke="#000" d="M284.429,-230.778C280.813,-255.928 277.543,-303.29 296.544,-337 313.554,-367.178 346.622,-389.066 373.275,-402.763"/><polygon fill="#000" stroke="#000" points="371.882 -405.979 382.398 -407.266 374.981 -399.702 371.882 -405.979"/><text x="348.044" y="-315.3" font-family="Times,serif" font-size="14" text-anchor="middle">S_STP_NEWREQ</text></g><g id="edge12" class="edge"><title>http1_cleanup-&gt;CNT_Request</title><path fill="none" stroke="#000" d="M246.12,-225.676C208.748,-236.723 159.343,-251.509 157.544,-253 145.588,-262.907 137.308,-278.12 131.915,-291.339"/><polygon fill="#000" stroke="#000" points="128.55 -290.345 128.34 -300.938 135.11 -292.788 128.55 -290.345"/><text x="213.044" y="-271.8" font-family="Times,serif" font-size="14" text-anchor="middle">S_STP_WORKING</text><text x="213.044" y="-256.8" font-family="Times,serif" font-size="14" text-anchor="middle">R_STP_RECV</text></g><g id="edge11" class="edge"><title>http1_cleanup-&gt;disembark</title><path fill="none" stroke="#000" d="M283.67,-194.346C280.556,-176.557 278.212,-148.404 288.544,-127 291.002,-121.907 294.597,-117.309 298.677,-113.246"/><polygon fill="#000" stroke="#000" points="301.159 -115.725 306.404 -106.52 296.563 -110.445 301.159 -115.725"/><text x="325.044" y="-145.8" font-family="Times,serif" font-size="14" text-anchor="middle">Session close</text></g></g></svg>